<?xml version="1.0" encoding="utf-8" standalone="no"?>
<!DOCTYPE svg PUBLIC "-//W3C//DTD SVG 1.1//EN"
  "http://www.w3.org/Graphics/SVG/1.1/DTD/svg11.dtd">
<!-- Created with matplotlib (https://matplotlib.org/) -->
<svg height="288pt" version="1.1" viewBox="0 0 432 288" width="432pt" xmlns="http://www.w3.org/2000/svg" xmlns:xlink="http://www.w3.org/1999/xlink">
 <defs>
  <style type="text/css">
*{stroke-linecap:butt;stroke-linejoin:round;}
  </style>
 </defs>
 <g id="figure_1">
  <g id="patch_1">
   <path d="M 0 288 
L 432 288 
L 432 0 
L 0 0 
z
" style="fill:#ffffff;"/>
  </g>
  <g id="axes_1">
   <g id="patch_2">
    <path d="M 48.425 260.2 
L 421.2 260.2 
L 421.2 10.8 
L 48.425 10.8 
z
" style="fill:#ffffff;"/>
   </g>
   <g id="matplotlib.axis_1">
    <g id="xtick_1">
     <g id="line2d_1">
      <defs>
       <path d="M 0 0 
L 0 3.5 
" id="mbe7c228eb9" style="stroke:#000000;stroke-width:0.8;"/>
      </defs>
      <g>
       <use style="stroke:#000000;stroke-width:0.8;" x="64.767066" xlink:href="#mbe7c228eb9" y="260.2"/>
      </g>
     </g>
     <g id="text_1">
      <!-- −1.5 -->
      <defs>
       <path d="M 10.59375 35.5 
L 73.1875 35.5 
L 73.1875 27.203125 
L 10.59375 27.203125 
z
" id="DejaVuSans-8722"/>
       <path d="M 12.40625 8.296875 
L 28.515625 8.296875 
L 28.515625 63.921875 
L 10.984375 60.40625 
L 10.984375 69.390625 
L 28.421875 72.90625 
L 38.28125 72.90625 
L 38.28125 8.296875 
L 54.390625 8.296875 
L 54.390625 0 
L 12.40625 0 
z
" id="DejaVuSans-49"/>
       <path d="M 10.6875 12.40625 
L 21 12.40625 
L 21 0 
L 10.6875 0 
z
" id="DejaVuSans-46"/>
       <path d="M 10.796875 72.90625 
L 49.515625 72.90625 
L 49.515625 64.59375 
L 19.828125 64.59375 
L 19.828125 46.734375 
Q 21.96875 47.46875 24.109375 47.828125 
Q 26.265625 48.1875 28.421875 48.1875 
Q 40.625 48.1875 47.75 41.5 
Q 54.890625 34.8125 54.890625 23.390625 
Q 54.890625 11.625 47.5625 5.09375 
Q 40.234375 -1.421875 26.90625 -1.421875 
Q 22.3125 -1.421875 17.546875 -0.640625 
Q 12.796875 0.140625 7.71875 1.703125 
L 7.71875 11.625 
Q 12.109375 9.234375 16.796875 8.0625 
Q 21.484375 6.890625 26.703125 6.890625 
Q 35.15625 6.890625 40.078125 11.328125 
Q 45.015625 15.765625 45.015625 23.390625 
Q 45.015625 31 40.078125 35.4375 
Q 35.15625 39.890625 26.703125 39.890625 
Q 22.75 39.890625 18.8125 39.015625 
Q 14.890625 38.140625 10.796875 36.28125 
z
" id="DejaVuSans-53"/>
      </defs>
      <g transform="translate(52.625659 274.798437)scale(0.1 -0.1)">
       <use xlink:href="#DejaVuSans-8722"/>
       <use x="83.789062" xlink:href="#DejaVuSans-49"/>
       <use x="147.412109" xlink:href="#DejaVuSans-46"/>
       <use x="179.199219" xlink:href="#DejaVuSans-53"/>
      </g>
     </g>
    </g>
    <g id="xtick_2">
     <g id="line2d_2">
      <g>
       <use style="stroke:#000000;stroke-width:0.8;" x="121.448877" xlink:href="#mbe7c228eb9" y="260.2"/>
      </g>
     </g>
     <g id="text_2">
      <!-- −1.0 -->
      <defs>
       <path d="M 31.78125 66.40625 
Q 24.171875 66.40625 20.328125 58.90625 
Q 16.5 51.421875 16.5 36.375 
Q 16.5 21.390625 20.328125 13.890625 
Q 24.171875 6.390625 31.78125 6.390625 
Q 39.453125 6.390625 43.28125 13.890625 
Q 47.125 21.390625 47.125 36.375 
Q 47.125 51.421875 43.28125 58.90625 
Q 39.453125 66.40625 31.78125 66.40625 
z
M 31.78125 74.21875 
Q 44.046875 74.21875 50.515625 64.515625 
Q 56.984375 54.828125 56.984375 36.375 
Q 56.984375 17.96875 50.515625 8.265625 
Q 44.046875 -1.421875 31.78125 -1.421875 
Q 19.53125 -1.421875 13.0625 8.265625 
Q 6.59375 17.96875 6.59375 36.375 
Q 6.59375 54.828125 13.0625 64.515625 
Q 19.53125 74.21875 31.78125 74.21875 
z
" id="DejaVuSans-48"/>
      </defs>
      <g transform="translate(109.307471 274.798437)scale(0.1 -0.1)">
       <use xlink:href="#DejaVuSans-8722"/>
       <use x="83.789062" xlink:href="#DejaVuSans-49"/>
       <use x="147.412109" xlink:href="#DejaVuSans-46"/>
       <use x="179.199219" xlink:href="#DejaVuSans-48"/>
      </g>
     </g>
    </g>
    <g id="xtick_3">
     <g id="line2d_3">
      <g>
       <use style="stroke:#000000;stroke-width:0.8;" x="178.130689" xlink:href="#mbe7c228eb9" y="260.2"/>
      </g>
     </g>
     <g id="text_3">
      <!-- −0.5 -->
      <g transform="translate(165.989282 274.798437)scale(0.1 -0.1)">
       <use xlink:href="#DejaVuSans-8722"/>
       <use x="83.789062" xlink:href="#DejaVuSans-48"/>
       <use x="147.412109" xlink:href="#DejaVuSans-46"/>
       <use x="179.199219" xlink:href="#DejaVuSans-53"/>
      </g>
     </g>
    </g>
    <g id="xtick_4">
     <g id="line2d_4">
      <g>
       <use style="stroke:#000000;stroke-width:0.8;" x="234.8125" xlink:href="#mbe7c228eb9" y="260.2"/>
      </g>
     </g>
     <g id="text_4">
      <!-- 0.0 -->
      <g transform="translate(226.860938 274.798437)scale(0.1 -0.1)">
       <use xlink:href="#DejaVuSans-48"/>
       <use x="63.623047" xlink:href="#DejaVuSans-46"/>
       <use x="95.410156" xlink:href="#DejaVuSans-48"/>
      </g>
     </g>
    </g>
    <g id="xtick_5">
     <g id="line2d_5">
      <g>
       <use style="stroke:#000000;stroke-width:0.8;" x="291.494311" xlink:href="#mbe7c228eb9" y="260.2"/>
      </g>
     </g>
     <g id="text_5">
      <!-- 0.5 -->
      <g transform="translate(283.542749 274.798437)scale(0.1 -0.1)">
       <use xlink:href="#DejaVuSans-48"/>
       <use x="63.623047" xlink:href="#DejaVuSans-46"/>
       <use x="95.410156" xlink:href="#DejaVuSans-53"/>
      </g>
     </g>
    </g>
    <g id="xtick_6">
     <g id="line2d_6">
      <g>
       <use style="stroke:#000000;stroke-width:0.8;" x="348.176123" xlink:href="#mbe7c228eb9" y="260.2"/>
      </g>
     </g>
     <g id="text_6">
      <!-- 1.0 -->
      <g transform="translate(340.22456 274.798437)scale(0.1 -0.1)">
       <use xlink:href="#DejaVuSans-49"/>
       <use x="63.623047" xlink:href="#DejaVuSans-46"/>
       <use x="95.410156" xlink:href="#DejaVuSans-48"/>
      </g>
     </g>
    </g>
    <g id="xtick_7">
     <g id="line2d_7">
      <g>
       <use style="stroke:#000000;stroke-width:0.8;" x="404.857934" xlink:href="#mbe7c228eb9" y="260.2"/>
      </g>
     </g>
     <g id="text_7">
      <!-- 1.5 -->
      <g transform="translate(396.906372 274.798437)scale(0.1 -0.1)">
       <use xlink:href="#DejaVuSans-49"/>
       <use x="63.623047" xlink:href="#DejaVuSans-46"/>
       <use x="95.410156" xlink:href="#DejaVuSans-53"/>
      </g>
     </g>
    </g>
   </g>
   <g id="matplotlib.axis_2">
    <g id="ytick_1">
     <g id="line2d_8">
      <defs>
       <path d="M 0 0 
L -3.5 0 
" id="m7fcb681d4c" style="stroke:#000000;stroke-width:0.8;"/>
      </defs>
      <g>
       <use style="stroke:#000000;stroke-width:0.8;" x="48.425" xlink:href="#m7fcb681d4c" y="248.863623"/>
      </g>
     </g>
     <g id="text_8">
      <!-- −1.00 -->
      <g transform="translate(10.779688 252.662842)scale(0.1 -0.1)">
       <use xlink:href="#DejaVuSans-8722"/>
       <use x="83.789062" xlink:href="#DejaVuSans-49"/>
       <use x="147.412109" xlink:href="#DejaVuSans-46"/>
       <use x="179.199219" xlink:href="#DejaVuSans-48"/>
       <use x="242.822266" xlink:href="#DejaVuSans-48"/>
      </g>
     </g>
    </g>
    <g id="ytick_2">
     <g id="line2d_9">
      <g>
       <use style="stroke:#000000;stroke-width:0.8;" x="48.425" xlink:href="#m7fcb681d4c" y="220.522717"/>
      </g>
     </g>
     <g id="text_9">
      <!-- −0.75 -->
      <defs>
       <path d="M 8.203125 72.90625 
L 55.078125 72.90625 
L 55.078125 68.703125 
L 28.609375 0 
L 18.3125 0 
L 43.21875 64.59375 
L 8.203125 64.59375 
z
" id="DejaVuSans-55"/>
      </defs>
      <g transform="translate(10.779688 224.321936)scale(0.1 -0.1)">
       <use xlink:href="#DejaVuSans-8722"/>
       <use x="83.789062" xlink:href="#DejaVuSans-48"/>
       <use x="147.412109" xlink:href="#DejaVuSans-46"/>
       <use x="179.199219" xlink:href="#DejaVuSans-55"/>
       <use x="242.822266" xlink:href="#DejaVuSans-53"/>
      </g>
     </g>
    </g>
    <g id="ytick_3">
     <g id="line2d_10">
      <g>
       <use style="stroke:#000000;stroke-width:0.8;" x="48.425" xlink:href="#m7fcb681d4c" y="192.181811"/>
      </g>
     </g>
     <g id="text_10">
      <!-- −0.50 -->
      <g transform="translate(10.779688 195.98103)scale(0.1 -0.1)">
       <use xlink:href="#DejaVuSans-8722"/>
       <use x="83.789062" xlink:href="#DejaVuSans-48"/>
       <use x="147.412109" xlink:href="#DejaVuSans-46"/>
       <use x="179.199219" xlink:href="#DejaVuSans-53"/>
       <use x="242.822266" xlink:href="#DejaVuSans-48"/>
      </g>
     </g>
    </g>
    <g id="ytick_4">
     <g id="line2d_11">
      <g>
       <use style="stroke:#000000;stroke-width:0.8;" x="48.425" xlink:href="#m7fcb681d4c" y="163.840906"/>
      </g>
     </g>
     <g id="text_11">
      <!-- −0.25 -->
      <defs>
       <path d="M 19.1875 8.296875 
L 53.609375 8.296875 
L 53.609375 0 
L 7.328125 0 
L 7.328125 8.296875 
Q 12.9375 14.109375 22.625 23.890625 
Q 32.328125 33.6875 34.8125 36.53125 
Q 39.546875 41.84375 41.421875 45.53125 
Q 43.3125 49.21875 43.3125 52.78125 
Q 43.3125 58.59375 39.234375 62.25 
Q 35.15625 65.921875 28.609375 65.921875 
Q 23.96875 65.921875 18.8125 64.3125 
Q 13.671875 62.703125 7.8125 59.421875 
L 7.8125 69.390625 
Q 13.765625 71.78125 18.9375 73 
Q 24.125 74.21875 28.421875 74.21875 
Q 39.75 74.21875 46.484375 68.546875 
Q 53.21875 62.890625 53.21875 53.421875 
Q 53.21875 48.921875 51.53125 44.890625 
Q 49.859375 40.875 45.40625 35.40625 
Q 44.1875 33.984375 37.640625 27.21875 
Q 31.109375 20.453125 19.1875 8.296875 
z
" id="DejaVuSans-50"/>
      </defs>
      <g transform="translate(10.779688 167.640124)scale(0.1 -0.1)">
       <use xlink:href="#DejaVuSans-8722"/>
       <use x="83.789062" xlink:href="#DejaVuSans-48"/>
       <use x="147.412109" xlink:href="#DejaVuSans-46"/>
       <use x="179.199219" xlink:href="#DejaVuSans-50"/>
       <use x="242.822266" xlink:href="#DejaVuSans-53"/>
      </g>
     </g>
    </g>
    <g id="ytick_5">
     <g id="line2d_12">
      <g>
       <use style="stroke:#000000;stroke-width:0.8;" x="48.425" xlink:href="#m7fcb681d4c" y="135.5"/>
      </g>
     </g>
     <g id="text_12">
      <!-- 0.00 -->
      <g transform="translate(19.159375 139.299219)scale(0.1 -0.1)">
       <use xlink:href="#DejaVuSans-48"/>
       <use x="63.623047" xlink:href="#DejaVuSans-46"/>
       <use x="95.410156" xlink:href="#DejaVuSans-48"/>
       <use x="159.033203" xlink:href="#DejaVuSans-48"/>
      </g>
     </g>
    </g>
    <g id="ytick_6">
     <g id="line2d_13">
      <g>
       <use style="stroke:#000000;stroke-width:0.8;" x="48.425" xlink:href="#m7fcb681d4c" y="107.159094"/>
      </g>
     </g>
     <g id="text_13">
      <!-- 0.25 -->
      <g transform="translate(19.159375 110.958313)scale(0.1 -0.1)">
       <use xlink:href="#DejaVuSans-48"/>
       <use x="63.623047" xlink:href="#DejaVuSans-46"/>
       <use x="95.410156" xlink:href="#DejaVuSans-50"/>
       <use x="159.033203" xlink:href="#DejaVuSans-53"/>
      </g>
     </g>
    </g>
    <g id="ytick_7">
     <g id="line2d_14">
      <g>
       <use style="stroke:#000000;stroke-width:0.8;" x="48.425" xlink:href="#m7fcb681d4c" y="78.818189"/>
      </g>
     </g>
     <g id="text_14">
      <!-- 0.50 -->
      <g transform="translate(19.159375 82.617407)scale(0.1 -0.1)">
       <use xlink:href="#DejaVuSans-48"/>
       <use x="63.623047" xlink:href="#DejaVuSans-46"/>
       <use x="95.410156" xlink:href="#DejaVuSans-53"/>
       <use x="159.033203" xlink:href="#DejaVuSans-48"/>
      </g>
     </g>
    </g>
    <g id="ytick_8">
     <g id="line2d_15">
      <g>
       <use style="stroke:#000000;stroke-width:0.8;" x="48.425" xlink:href="#m7fcb681d4c" y="50.477283"/>
      </g>
     </g>
     <g id="text_15">
      <!-- 0.75 -->
      <g transform="translate(19.159375 54.276502)scale(0.1 -0.1)">
       <use xlink:href="#DejaVuSans-48"/>
       <use x="63.623047" xlink:href="#DejaVuSans-46"/>
       <use x="95.410156" xlink:href="#DejaVuSans-55"/>
       <use x="159.033203" xlink:href="#DejaVuSans-53"/>
      </g>
     </g>
    </g>
    <g id="ytick_9">
     <g id="line2d_16">
      <g>
       <use style="stroke:#000000;stroke-width:0.8;" x="48.425" xlink:href="#m7fcb681d4c" y="22.136377"/>
      </g>
     </g>
     <g id="text_16">
      <!-- 1.00 -->
      <g transform="translate(19.159375 25.935596)scale(0.1 -0.1)">
       <use xlink:href="#DejaVuSans-49"/>
       <use x="63.623047" xlink:href="#DejaVuSans-46"/>
       <use x="95.410156" xlink:href="#DejaVuSans-48"/>
       <use x="159.033203" xlink:href="#DejaVuSans-48"/>
      </g>
     </g>
    </g>
   </g>
   <g id="line2d_17">
    <path clip-path="url(#p61611f2b80)" d="M 348.176123 135.5 
L 276.840574 135.235926 
L 266.941977 134.894302 
L 260.485222 134.450925 
L 255.813403 133.913562 
L 252.276677 133.293761 
L 249.415571 132.571415 
L 247.104447 131.760734 
L 245.189985 130.853579 
L 243.591668 129.850883 
L 242.238052 128.743268 
L 241.060931 127.496617 
L 240.028255 126.082779 
L 239.108425 124.447334 
L 238.278964 122.508573 
L 237.535822 120.180395 
L 236.87583 117.334022 
L 236.310294 113.863474 
L 235.861575 109.827278 
L 235.489923 104.700557 
L 235.173558 97.19166 
L 234.96473 87.043993 
L 234.812508 29.351453 
L 234.548426 93.471949 
L 234.206802 103.370513 
L 233.763423 109.827296 
L 233.226063 114.499082 
L 232.606262 118.035823 
L 231.883914 120.896929 
L 231.073234 123.208053 
L 230.166079 125.122515 
L 229.163383 126.720832 
L 228.055768 128.074448 
L 226.809117 129.25157 
L 225.395278 130.284246 
L 223.759834 131.204074 
L 221.821067 132.033535 
L 219.492895 132.776679 
L 216.646522 133.436671 
L 213.175959 134.002208 
L 209.139796 134.450924 
L 204.013087 134.822576 
L 196.504231 135.13894 
L 186.356365 135.347772 
L 128.92207 135.500009 
L 192.784696 135.76408 
L 202.683097 136.105701 
L 209.139778 136.549076 
L 213.811597 137.08644 
L 217.348309 137.706238 
L 220.209429 138.428586 
L 222.520554 139.239268 
L 224.435015 140.146421 
L 226.033332 141.149116 
L 227.386947 142.256732 
L 228.564069 143.503383 
L 229.596745 144.917221 
L 230.516574 146.552666 
L 231.346035 148.491427 
L 232.08918 150.819612 
L 232.749173 153.665984 
L 233.314704 157.136502 
L 233.763426 161.172741 
L 234.135074 166.299392 
L 234.451431 173.807968 
L 234.66026 183.955193 
L 234.812501 244.246323 
L 235.076562 177.528628 
L 235.418205 167.629339 
L 235.861574 161.172731 
L 236.398942 156.500888 
L 237.01874 152.964175 
L 237.741085 150.103071 
L 238.551769 147.791941 
L 239.458923 145.87749 
L 240.461616 144.279169 
L 241.569235 142.92555 
L 242.815883 141.74843 
L 244.229722 140.715753 
L 245.865166 139.795924 
L 247.803933 138.966464 
L 250.132105 138.223323 
L 252.978491 137.563324 
L 256.449026 136.997794 
L 260.485168 136.549079 
L 265.611761 136.177433 
L 273.120624 135.861064 
L 283.268179 135.652234 
L 283.268179 135.652234 
" style="fill:none;stroke:#1f77b4;stroke-linecap:square;stroke-width:1.5;"/>
   </g>
   <g id="line2d_18">
    <path clip-path="url(#p61611f2b80)" d="M 348.176123 135.5 
L 336.4619 135.180658 
L 329.000376 134.612274 
L 322.456514 133.847754 
L 316.605885 132.929539 
L 311.333001 131.891384 
L 305.867305 130.581209 
L 300.613185 129.071375 
L 295.717219 127.416848 
L 291.210663 125.656945 
L 286.829547 123.70111 
L 282.67478 121.594723 
L 278.76942 119.361835 
L 275.094552 117.006386 
L 271.608435 114.511967 
L 268.255122 111.838826 
L 265.05891 109.002615 
L 262.006659 105.988661 
L 259.158614 102.860968 
L 256.495924 99.611645 
L 253.940921 96.141555 
L 251.530748 92.48686 
L 249.345489 88.782511 
L 247.298404 84.895335 
L 245.412466 80.866079 
L 243.594175 76.45851 
L 242.015412 72.084076 
L 240.590513 67.544947 
L 239.187019 62.300003 
L 238.017981 57.056228 
L 236.935625 51.041303 
L 236.218753 45.982298 
L 235.700225 41.312124 
L 235.131843 33.850627 
L 234.812509 22.198656 
L 234.49316 33.850553 
L 233.924778 41.312083 
L 233.160255 47.855966 
L 232.242035 53.706628 
L 231.203881 58.979519 
L 229.893714 64.445181 
L 228.383874 69.699315 
L 226.729345 74.595294 
L 224.969445 79.101837 
L 223.013607 83.482953 
L 220.907218 87.637714 
L 218.674337 91.543069 
L 216.318884 95.217937 
L 213.824464 98.704065 
L 211.151326 102.057378 
L 208.315113 105.253584 
L 205.392184 108.21832 
L 202.272471 111.068248 
L 199.035301 113.730019 
L 195.582867 116.281608 
L 191.952474 118.686078 
L 188.095015 120.967007 
L 184.207842 123.014094 
L 180.178586 124.90003 
L 175.77101 126.718321 
L 171.396576 128.29709 
L 166.857461 129.721982 
L 161.612483 131.125483 
L 156.368748 132.294514 
L 150.353844 133.37687 
L 145.294913 134.093731 
L 140.624685 134.612269 
L 133.163026 135.180662 
L 121.515886 135.50001 
L 133.163344 135.819355 
L 140.624624 136.387726 
L 147.168561 137.152257 
L 153.019148 138.070468 
L 158.292033 139.108622 
L 163.757695 140.418789 
L 169.011842 141.928634 
L 173.907781 143.583152 
L 178.414358 145.343061 
L 182.795453 147.298889 
L 186.950234 149.405285 
L 190.855583 151.638169 
L 194.530448 153.993618 
L 198.016565 156.488035 
L 201.369875 159.161172 
L 204.566087 161.997392 
L 207.530823 164.920309 
L 210.380754 168.040042 
L 213.042507 171.277175 
L 215.594096 174.729626 
L 217.998583 178.360037 
L 220.279512 182.217499 
L 222.326607 186.104689 
L 224.212536 190.133931 
L 226.030817 194.541484 
L 227.609598 198.915944 
L 229.034478 203.455026 
L 230.437965 208.699943 
L 231.607024 213.943806 
L 232.689382 219.958731 
L 233.406244 225.017682 
L 233.924742 229.687545 
L 234.493131 237.148927 
L 234.812501 248.838865 
L 235.131825 237.149704 
L 235.700219 229.687944 
L 236.46477 223.143838 
L 237.382963 217.293385 
L 238.421118 212.020501 
L 239.731298 206.554765 
L 241.241117 201.300705 
L 242.895636 196.404746 
L 244.655558 191.898156 
L 246.611387 187.517053 
L 248.717769 183.36231 
L 250.950675 179.456914 
L 253.306111 175.782066 
L 255.800528 172.295951 
L 258.473677 168.942619 
L 261.309885 165.74641 
L 264.323833 162.694164 
L 267.451536 159.846106 
L 270.700855 157.183424 
L 274.170945 154.628424 
L 277.82564 152.218247 
L 281.529985 150.033 
L 285.417165 147.985904 
L 289.4464 146.099975 
L 293.854004 144.281676 
L 298.228464 142.702894 
L 302.767553 141.278012 
L 308.012477 139.874525 
L 313.256205 138.705496 
L 319.271082 137.623141 
L 324.33 136.906281 
L 329.000167 136.387744 
L 336.46169 135.819353 
L 336.46169 135.819353 
" style="fill:none;stroke:#ff7f0e;stroke-linecap:square;stroke-width:1.5;"/>
   </g>
   <g id="line2d_19">
    <path clip-path="url(#p61611f2b80)" d="M 348.176123 135.5 
L 314.812774 102.06797 
L 234.812509 22.136391 
L 202.007705 54.873048 
L 121.448891 135.50001 
L 154.603888 168.723499 
L 234.812501 248.863623 
L 268.035979 215.70864 
L 347.823462 135.855048 
L 347.823462 135.855048 
" style="fill:none;stroke:#2ca02c;stroke-linecap:square;stroke-width:1.5;"/>
   </g>
   <g id="line2d_20">
    <path clip-path="url(#p61611f2b80)" d="M 348.176123 135.5 
L 348.066491 130.515615 
L 347.737817 125.54087 
L 347.190723 120.585387 
L 346.426283 115.658751 
L 345.445958 110.770492 
L 344.251658 105.93006 
L 342.845689 101.146825 
L 341.230773 96.430028 
L 339.410025 91.788801 
L 337.386973 87.232118 
L 335.165529 82.768789 
L 332.74999 78.407451 
L 330.145025 74.156535 
L 327.355675 70.024266 
L 324.387339 66.018636 
L 321.245747 62.14739 
L 317.936987 58.418026 
L 314.467444 54.837736 
L 310.843848 51.413465 
L 307.073193 48.151828 
L 303.162783 45.059136 
L 299.120165 42.141363 
L 294.953165 39.404157 
L 290.669856 36.852816 
L 286.2785 34.492265 
L 281.787623 32.327093 
L 277.205868 30.361455 
L 272.54213 28.599176 
L 267.805403 27.043654 
L 263.004894 25.697903 
L 258.149828 24.564525 
L 253.249638 23.645708 
L 248.313775 22.94323 
L 243.351827 22.458456 
L 238.373334 22.192318 
L 233.387968 22.14533 
L 228.405344 22.317586 
L 223.435139 22.708749 
L 218.486913 23.318068 
L 213.570276 24.144361 
L 208.694711 25.186034 
L 203.869687 26.441058 
L 199.104483 27.907023 
L 194.408359 29.581083 
L 189.790366 31.460015 
L 185.259467 33.540163 
L 180.82441 35.817522 
L 176.493772 38.287671 
L 172.275925 40.945847 
L 168.179042 43.786902 
L 164.211008 46.805354 
L 160.379567 49.99532 
L 156.692057 53.350703 
L 153.155653 56.864951 
L 149.777188 60.531291 
L 146.563194 64.34263 
L 143.519883 68.291603 
L 140.653145 72.370559 
L 137.968509 76.571635 
L 135.47121 80.886648 
L 133.166019 85.307333 
L 131.057444 89.825072 
L 129.149545 94.431159 
L 127.446004 99.116668 
L 125.950133 103.872558 
L 124.66481 108.68961 
L 123.592521 113.558548 
L 122.735362 118.469872 
L 122.094961 123.414183 
L 121.672574 128.381846 
L 121.46902 133.363276 
L 121.484682 138.348839 
L 121.719535 143.328892 
L 122.173119 148.293802 
L 122.844576 153.233994 
L 123.73258 158.139834 
L 124.835437 163.001938 
L 126.150998 167.810821 
L 127.676728 172.557214 
L 129.409669 177.231932 
L 131.346474 181.825938 
L 133.483395 186.330342 
L 135.816317 190.736452 
L 138.340677 195.035691 
L 141.051659 199.21982 
L 143.943966 203.280681 
L 147.012028 207.21045 
L 150.249907 211.001518 
L 153.651347 214.646561 
L 157.209758 218.138517 
L 160.918262 221.47065 
L 164.769704 224.636513 
L 168.756583 227.629944 
L 172.871264 230.445214 
L 177.105747 233.076849 
L 181.451797 235.519727 
L 185.901051 237.769158 
L 190.445007 239.820833 
L 195.07468 241.67069 
L 199.781203 243.315208 
L 204.555482 244.751199 
L 209.388388 245.975905 
L 214.270361 246.986914 
L 219.192066 247.782294 
L 224.144037 248.36051 
L 229.116643 248.720442 
L 234.10021 248.861386 
L 239.085209 248.783073 
L 244.061891 248.485663 
L 249.020736 247.969712 
L 253.952102 247.23624 
L 258.846395 246.286652 
L 263.694202 245.1228 
L 268.486255 243.746893 
L 273.213073 242.161647 
L 277.865621 240.37011 
L 282.4349 238.375741 
L 286.912168 236.182352 
L 291.288571 233.794273 
L 295.555747 231.216086 
L 299.705477 228.452744 
L 303.729695 225.509612 
L 307.620577 222.392433 
L 311.370685 219.107146 
L 314.972672 215.660199 
L 318.419666 212.058171 
L 321.704946 208.308064 
L 324.822125 204.417182 
L 327.765224 200.393004 
L 330.5286 196.243227 
L 333.106786 191.976054 
L 335.494858 187.599651 
L 337.6882 183.122477 
L 339.682616 178.553104 
L 341.474153 173.900553 
L 343.059393 169.173732 
L 344.435293 164.381736 
L 345.599159 159.533873 
L 346.54874 154.63958 
L 347.282219 149.708216 
L 347.798157 144.749424 
L 348.095573 139.772688 
L 348.175562 135.856155 
L 348.175562 135.856155 
" style="fill:none;stroke:#d62728;stroke-linecap:square;stroke-width:1.5;"/>
   </g>
   <g id="line2d_21">
    <path clip-path="url(#p61611f2b80)" d="M 348.176123 135.5 
L 348.067396 119.381442 
L 347.775345 110.622164 
L 347.325957 103.577044 
L 346.698901 97.192724 
L 345.923394 91.508085 
L 344.974083 86.176185 
L 343.866854 81.222531 
L 342.627431 76.668564 
L 341.158034 72.155639 
L 339.59291 68.077122 
L 337.806292 64.07729 
L 335.981781 60.529298 
L 333.961641 57.084269 
L 331.743954 53.760414 
L 329.329901 50.575205 
L 326.992892 47.840432 
L 324.505715 45.241454 
L 321.875729 42.787075 
L 319.112144 40.484243 
L 315.89786 38.109219 
L 312.548342 35.931053 
L 309.081238 33.950266 
L 305.514881 32.164418 
L 301.499 30.418876 
L 297.408631 28.892761 
L 293.265672 27.573274 
L 288.70936 26.352102 
L 283.755082 25.262631 
L 278.424286 24.330064 
L 272.742337 23.569814 
L 266.735466 22.986543 
L 259.690334 22.537155 
L 251.65545 22.260449 
L 241.229516 22.143236 
L 221.942711 22.191703 
L 212.50508 22.425029 
L 205.125073 22.819138 
L 198.390207 23.403727 
L 192.340224 24.159497 
L 187.013429 25.042893 
L 182.058123 26.080059 
L 177.495666 27.247371 
L 172.966335 28.637894 
L 168.86481 30.125426 
L 164.833679 31.830231 
L 161.249686 33.577631 
L 157.761264 35.519126 
L 154.386751 37.657784 
L 151.144088 39.993617 
L 148.049923 42.5236 
L 145.404626 44.96145 
L 142.901151 47.544779 
L 140.547162 50.264958 
L 138.113649 53.435375 
L 135.876224 56.746149 
L 133.836374 60.179846 
L 131.992471 63.718398 
L 130.340141 67.343339 
L 128.735584 71.409261 
L 127.342568 75.53551 
L 126.047542 80.081504 
L 124.886061 85.032445 
L 123.949048 89.986365 
L 123.15929 95.302393 
L 122.49311 101.33193 
L 121.988619 108.038214 
L 121.649046 115.749817 
L 121.477675 125.145817 
L 121.454648 141.55987 
L 121.598619 153.431336 
L 121.905731 161.483573 
L 122.392593 168.544344 
L 123.063124 174.940864 
L 123.885464 180.633023 
L 124.886068 185.967576 
L 126.047548 190.918516 
L 127.342574 195.464503 
L 128.735584 199.590732 
L 130.340141 203.656661 
L 131.992471 207.281622 
L 133.836374 210.82014 
L 135.876238 214.253865 
L 138.113662 217.564638 
L 140.547175 220.735063 
L 142.901145 223.455214 
L 145.404612 226.038543 
L 148.049917 228.476387 
L 150.827719 230.762029 
L 154.056307 233.117506 
L 157.4184 235.275914 
L 160.896248 237.237038 
L 164.47149 239.003608 
L 168.49506 240.728737 
L 172.591193 242.235534 
L 177.116646 243.645571 
L 181.677224 244.830675 
L 186.63231 245.885124 
L 191.960562 246.784731 
L 197.636866 247.515034 
L 204.00852 248.100346 
L 211.037928 248.513995 
L 219.417365 248.76891 
L 230.536831 248.861603 
L 249.846151 248.775424 
L 258.587075 248.513995 
L 265.989186 248.072115 
L 272.36511 247.47306 
L 278.044313 246.727871 
L 283.373852 245.811885 
L 288.328648 244.739996 
L 292.887118 243.536939 
L 297.408624 242.107239 
L 301.498987 240.581137 
L 305.514887 238.835568 
L 309.081251 237.049727 
L 312.548348 235.068954 
L 315.897833 232.890815 
L 319.112157 230.51575 
L 321.875763 228.212898 
L 324.505709 225.75854 
L 326.992879 223.159595 
L 329.329895 220.424801 
L 331.743954 217.239586 
L 333.961641 213.915731 
L 335.981788 210.470695 
L 337.806292 206.92271 
L 339.43981 203.290094 
L 341.024617 199.217746 
L 342.399051 195.087098 
L 343.675388 190.538337 
L 344.818645 185.586292 
L 345.80195 180.25255 
L 346.608506 174.56281 
L 347.2324 168.544368 
L 347.699437 161.852684 
L 348.007401 154.158112 
L 348.15771 144.420444 
L 348.176116 135.856156 
L 348.176116 135.856156 
" style="fill:none;stroke:#9467bd;stroke-linecap:square;stroke-width:1.5;"/>
   </g>
   <g id="line2d_22">
    <path clip-path="url(#p61611f2b80)" d="M 348.176123 135.5 
L 348.064673 64.126075 
L 347.82584 55.541309 
L 347.465753 49.805441 
L 347.010041 45.612825 
L 346.404451 41.995905 
L 345.675452 38.992338 
L 344.882214 36.601307 
L 343.890578 34.351064 
L 342.938915 32.676457 
L 341.837869 31.131226 
L 340.5845 29.728007 
L 339.181274 28.474631 
L 337.636043 27.373585 
L 335.961456 26.421922 
L 333.711193 25.430286 
L 331.320155 24.637048 
L 328.316588 23.908035 
L 324.699675 23.302459 
L 320.507059 22.846747 
L 315.288284 22.510343 
L 308.167948 22.283132 
L 296.657239 22.162871 
L 263.540014 22.136384 
L 163.930012 22.240354 
L 154.853809 22.48666 
L 149.117975 22.84674 
L 144.925325 23.302459 
L 141.308405 23.908049 
L 138.304852 24.637041 
L 135.91382 25.430279 
L 133.663537 26.421929 
L 131.988943 27.373598 
L 130.443719 28.474638 
L 129.0405 29.728 
L 127.787124 31.131253 
L 126.686078 32.676484 
L 125.734416 34.351071 
L 124.742779 36.60132 
L 123.949554 38.992325 
L 123.220542 41.995946 
L 122.614959 45.612832 
L 122.159247 49.805428 
L 121.822843 55.024216 
L 121.595632 62.144545 
L 121.475371 73.655247 
L 121.448891 106.772493 
L 121.552847 206.382482 
L 121.799167 215.458678 
L 122.15924 221.194593 
L 122.614966 225.387202 
L 123.220535 229.004088 
L 123.949548 232.007675 
L 124.742799 234.3987 
L 125.734422 236.648956 
L 126.686085 238.323543 
L 127.787131 239.868774 
L 129.040514 241.27202 
L 130.443746 242.525383 
L 131.98897 243.626415 
L 133.663564 244.578078 
L 135.913773 245.569694 
L 138.304845 246.362966 
L 141.308432 247.091958 
L 144.925359 247.697547 
L 149.117955 248.15326 
L 154.336736 248.489664 
L 161.457025 248.716874 
L 172.967774 248.837129 
L 206.08501 248.863609 
L 305.694928 248.75966 
L 314.771198 248.513333 
L 320.507045 248.15326 
L 324.699655 247.697541 
L 328.316568 247.091958 
L 331.320196 246.362946 
L 333.711227 245.569694 
L 335.961476 244.578064 
L 337.63603 243.626415 
L 339.181294 242.525356 
L 340.584486 241.27202 
L 341.837869 239.868754 
L 342.938888 238.32357 
L 343.890578 236.648956 
L 344.882201 234.3987 
L 345.675452 232.007662 
L 346.404465 229.004041 
L 347.010034 225.387195 
L 347.46576 221.194593 
L 347.802164 215.975811 
L 348.029368 208.855442 
L 348.149622 197.344773 
L 348.176116 164.227528 
L 348.176116 135.856156 
L 348.176116 135.856156 
" style="fill:none;stroke:#8c564b;stroke-linecap:square;stroke-width:1.5;"/>
   </g>
   <g id="line2d_23">
    <path clip-path="url(#p61611f2b80)" d="M 348.176123 135.5 
L 348.087883 25.036353 
L 347.892559 23.8321 
L 347.69247 23.327055 
L 347.393068 22.919446 
L 346.985445 22.62003 
L 345.902028 22.296498 
L 343.956134 22.162196 
L 336.670779 22.136404 
L 124.348832 22.224617 
L 123.144607 22.419935 
L 122.639555 22.620016 
L 122.231932 22.919432 
L 121.932516 23.327062 
L 121.608991 24.410499 
L 121.474696 26.356379 
L 121.448904 33.641741 
L 121.537117 245.963647 
L 121.732441 247.16792 
L 121.932536 247.672965 
L 122.231952 248.080588 
L 122.639555 248.37997 
L 123.722986 248.703502 
L 125.668866 248.837804 
L 132.954167 248.863596 
L 345.276181 248.775383 
L 346.480447 248.580045 
L 346.985459 248.37997 
L 347.393048 248.080588 
L 347.692491 247.672925 
L 348.015995 246.589569 
L 348.150318 244.643614 
L 348.176096 237.358292 
L 348.176116 135.856156 
L 348.176116 135.856156 
" style="fill:none;stroke:#e377c2;stroke-linecap:square;stroke-width:1.5;"/>
   </g>
   <g id="patch_3">
    <path d="M 48.425 260.2 
L 48.425 10.8 
" style="fill:none;stroke:#000000;stroke-linecap:square;stroke-linejoin:miter;stroke-width:0.8;"/>
   </g>
   <g id="patch_4">
    <path d="M 421.2 260.2 
L 421.2 10.8 
" style="fill:none;stroke:#000000;stroke-linecap:square;stroke-linejoin:miter;stroke-width:0.8;"/>
   </g>
   <g id="patch_5">
    <path d="M 48.425 260.2 
L 421.2 260.2 
" style="fill:none;stroke:#000000;stroke-linecap:square;stroke-linejoin:miter;stroke-width:0.8;"/>
   </g>
   <g id="patch_6">
    <path d="M 48.425 10.8 
L 421.2 10.8 
" style="fill:none;stroke:#000000;stroke-linecap:square;stroke-linejoin:miter;stroke-width:0.8;"/>
   </g>
   <g id="legend_1">
    <g id="patch_7">
     <path d="M 425.68125 121.546875 
L 507.39375 121.546875 
Q 509.39375 121.546875 509.39375 119.546875 
L 509.39375 17.8 
Q 509.39375 15.8 507.39375 15.8 
L 425.68125 15.8 
Q 423.68125 15.8 423.68125 17.8 
L 423.68125 119.546875 
Q 423.68125 121.546875 425.68125 121.546875 
z
" style="fill:#ffffff;opacity:0.8;stroke:#cccccc;stroke-linejoin:miter;"/>
    </g>
    <g id="line2d_24">
     <path d="M 427.68125 23.898438 
L 433 23.898438 
" style="fill:none;stroke:#1f77b4;stroke-linecap:square;stroke-width:1.5;"/>
    </g>
    <g id="line2d_25"/>
    <g id="text_17">
     <!-- p = 0.25 -->
     <defs>
      <path d="M 18.109375 8.203125 
L 18.109375 -20.796875 
L 9.078125 -20.796875 
L 9.078125 54.6875 
L 18.109375 54.6875 
L 18.109375 46.390625 
Q 20.953125 51.265625 25.265625 53.625 
Q 29.59375 56 35.59375 56 
Q 45.5625 56 51.78125 48.09375 
Q 58.015625 40.1875 58.015625 27.296875 
Q 58.015625 14.40625 51.78125 6.484375 
Q 45.5625 -1.421875 35.59375 -1.421875 
Q 29.59375 -1.421875 25.265625 0.953125 
Q 20.953125 3.328125 18.109375 8.203125 
z
M 48.6875 27.296875 
Q 48.6875 37.203125 44.609375 42.84375 
Q 40.53125 48.484375 33.40625 48.484375 
Q 26.265625 48.484375 22.1875 42.84375 
Q 18.109375 37.203125 18.109375 27.296875 
Q 18.109375 17.390625 22.1875 11.75 
Q 26.265625 6.109375 33.40625 6.109375 
Q 40.53125 6.109375 44.609375 11.75 
Q 48.6875 17.390625 48.6875 27.296875 
z
" id="DejaVuSans-112"/>
      <path id="DejaVuSans-32"/>
      <path d="M 10.59375 45.40625 
L 73.1875 45.40625 
L 73.1875 37.203125 
L 10.59375 37.203125 
z
M 10.59375 25.484375 
L 73.1875 25.484375 
L 73.1875 17.1875 
L 10.59375 17.1875 
z
" id="DejaVuSans-61"/>
     </defs>
     <g transform="translate(455.68125 27.398438)scale(0.1 -0.1)">
      <use xlink:href="#DejaVuSans-112"/>
      <use x="63.476562" xlink:href="#DejaVuSans-32"/>
      <use x="95.263672" xlink:href="#DejaVuSans-61"/>
      <use x="179.052734" xlink:href="#DejaVuSans-32"/>
      <use x="210.839844" xlink:href="#DejaVuSans-48"/>
      <use x="274.462891" xlink:href="#DejaVuSans-46"/>
      <use x="306.25" xlink:href="#DejaVuSans-50"/>
      <use x="369.873047" xlink:href="#DejaVuSans-53"/>
     </g>
    </g>
    <g id="line2d_26">
     <path d="M 427.68125 38.576563 
L 433 38.576563 
" style="fill:none;stroke:#ff7f0e;stroke-linecap:square;stroke-width:1.5;"/>
    </g>
    <g id="line2d_27"/>
    <g id="text_18">
     <!-- p = 0.5 -->
     <g transform="translate(455.68125 42.076563)scale(0.1 -0.1)">
      <use xlink:href="#DejaVuSans-112"/>
      <use x="63.476562" xlink:href="#DejaVuSans-32"/>
      <use x="95.263672" xlink:href="#DejaVuSans-61"/>
      <use x="179.052734" xlink:href="#DejaVuSans-32"/>
      <use x="210.839844" xlink:href="#DejaVuSans-48"/>
      <use x="274.462891" xlink:href="#DejaVuSans-46"/>
      <use x="306.25" xlink:href="#DejaVuSans-53"/>
     </g>
    </g>
    <g id="line2d_28">
     <path d="M 427.68125 53.254687 
L 433 53.254687 
" style="fill:none;stroke:#2ca02c;stroke-linecap:square;stroke-width:1.5;"/>
    </g>
    <g id="line2d_29"/>
    <g id="text_19">
     <!-- p = 1.001 -->
     <g transform="translate(455.68125 56.754687)scale(0.1 -0.1)">
      <use xlink:href="#DejaVuSans-112"/>
      <use x="63.476562" xlink:href="#DejaVuSans-32"/>
      <use x="95.263672" xlink:href="#DejaVuSans-61"/>
      <use x="179.052734" xlink:href="#DejaVuSans-32"/>
      <use x="210.839844" xlink:href="#DejaVuSans-49"/>
      <use x="274.462891" xlink:href="#DejaVuSans-46"/>
      <use x="306.25" xlink:href="#DejaVuSans-48"/>
      <use x="369.873047" xlink:href="#DejaVuSans-48"/>
      <use x="433.496094" xlink:href="#DejaVuSans-49"/>
     </g>
    </g>
    <g id="line2d_30">
     <path d="M 427.68125 67.932813 
L 433 67.932813 
" style="fill:none;stroke:#d62728;stroke-linecap:square;stroke-width:1.5;"/>
    </g>
    <g id="line2d_31"/>
    <g id="text_20">
     <!-- p = 2.0 -->
     <g transform="translate(455.68125 71.432813)scale(0.1 -0.1)">
      <use xlink:href="#DejaVuSans-112"/>
      <use x="63.476562" xlink:href="#DejaVuSans-32"/>
      <use x="95.263672" xlink:href="#DejaVuSans-61"/>
      <use x="179.052734" xlink:href="#DejaVuSans-32"/>
      <use x="210.839844" xlink:href="#DejaVuSans-50"/>
      <use x="274.462891" xlink:href="#DejaVuSans-46"/>
      <use x="306.25" xlink:href="#DejaVuSans-48"/>
     </g>
    </g>
    <g id="line2d_32">
     <path d="M 427.68125 82.610938 
L 433 82.610938 
" style="fill:none;stroke:#9467bd;stroke-linecap:square;stroke-width:1.5;"/>
    </g>
    <g id="line2d_33"/>
    <g id="text_21">
     <!-- p = 3.0 -->
     <defs>
      <path d="M 40.578125 39.3125 
Q 47.65625 37.796875 51.625 33 
Q 55.609375 28.21875 55.609375 21.1875 
Q 55.609375 10.40625 48.1875 4.484375 
Q 40.765625 -1.421875 27.09375 -1.421875 
Q 22.515625 -1.421875 17.65625 -0.515625 
Q 12.796875 0.390625 7.625 2.203125 
L 7.625 11.71875 
Q 11.71875 9.328125 16.59375 8.109375 
Q 21.484375 6.890625 26.8125 6.890625 
Q 36.078125 6.890625 40.9375 10.546875 
Q 45.796875 14.203125 45.796875 21.1875 
Q 45.796875 27.640625 41.28125 31.265625 
Q 36.765625 34.90625 28.71875 34.90625 
L 20.21875 34.90625 
L 20.21875 43.015625 
L 29.109375 43.015625 
Q 36.375 43.015625 40.234375 45.921875 
Q 44.09375 48.828125 44.09375 54.296875 
Q 44.09375 59.90625 40.109375 62.90625 
Q 36.140625 65.921875 28.71875 65.921875 
Q 24.65625 65.921875 20.015625 65.03125 
Q 15.375 64.15625 9.8125 62.3125 
L 9.8125 71.09375 
Q 15.4375 72.65625 20.34375 73.4375 
Q 25.25 74.21875 29.59375 74.21875 
Q 40.828125 74.21875 47.359375 69.109375 
Q 53.90625 64.015625 53.90625 55.328125 
Q 53.90625 49.265625 50.4375 45.09375 
Q 46.96875 40.921875 40.578125 39.3125 
z
" id="DejaVuSans-51"/>
     </defs>
     <g transform="translate(455.68125 86.110938)scale(0.1 -0.1)">
      <use xlink:href="#DejaVuSans-112"/>
      <use x="63.476562" xlink:href="#DejaVuSans-32"/>
      <use x="95.263672" xlink:href="#DejaVuSans-61"/>
      <use x="179.052734" xlink:href="#DejaVuSans-32"/>
      <use x="210.839844" xlink:href="#DejaVuSans-51"/>
      <use x="274.462891" xlink:href="#DejaVuSans-46"/>
      <use x="306.25" xlink:href="#DejaVuSans-48"/>
     </g>
    </g>
    <g id="line2d_34">
     <path d="M 427.68125 97.289062 
L 433 97.289062 
" style="fill:none;stroke:#8c564b;stroke-linecap:square;stroke-width:1.5;"/>
    </g>
    <g id="line2d_35"/>
    <g id="text_22">
     <!-- p = 10.0 -->
     <g transform="translate(455.68125 100.789062)scale(0.1 -0.1)">
      <use xlink:href="#DejaVuSans-112"/>
      <use x="63.476562" xlink:href="#DejaVuSans-32"/>
      <use x="95.263672" xlink:href="#DejaVuSans-61"/>
      <use x="179.052734" xlink:href="#DejaVuSans-32"/>
      <use x="210.839844" xlink:href="#DejaVuSans-49"/>
      <use x="274.462891" xlink:href="#DejaVuSans-48"/>
      <use x="338.085938" xlink:href="#DejaVuSans-46"/>
      <use x="369.873047" xlink:href="#DejaVuSans-48"/>
     </g>
    </g>
    <g id="line2d_36">
     <path d="M 427.68125 111.967187 
L 433 111.967187 
" style="fill:none;stroke:#e377c2;stroke-linecap:square;stroke-width:1.5;"/>
    </g>
    <g id="line2d_37"/>
    <g id="text_23">
     <!-- p = 100.0 -->
     <g transform="translate(455.68125 115.467187)scale(0.1 -0.1)">
      <use xlink:href="#DejaVuSans-112"/>
      <use x="63.476562" xlink:href="#DejaVuSans-32"/>
      <use x="95.263672" xlink:href="#DejaVuSans-61"/>
      <use x="179.052734" xlink:href="#DejaVuSans-32"/>
      <use x="210.839844" xlink:href="#DejaVuSans-49"/>
      <use x="274.462891" xlink:href="#DejaVuSans-48"/>
      <use x="338.085938" xlink:href="#DejaVuSans-48"/>
      <use x="401.708984" xlink:href="#DejaVuSans-46"/>
      <use x="433.496094" xlink:href="#DejaVuSans-48"/>
     </g>
    </g>
   </g>
  </g>
 </g>
 <defs>
  <clipPath id="p61611f2b80">
   <rect height="249.4" width="372.775" x="48.425" y="10.8"/>
  </clipPath>
 </defs>
</svg>
